<?xml version="1.0" encoding="utf-8"?>
<!-- Generator: Adobe Illustrator 21.0.2, SVG Export Plug-In . SVG Version: 6.00 Build 0)  -->
<svg version="1.1" id="Capa_1" xmlns="http://www.w3.org/2000/svg" xmlns:xlink="http://www.w3.org/1999/xlink" x="0px" y="0px"
	 viewBox="0 0 830.3 383.5" style="enable-background:new 0 0 830.3 383.5;" xml:space="preserve">
<style type="text/css">
	.st0{fill:#FFFFFF;stroke:#000000;stroke-miterlimit:10;}
	.st1{opacity:0.9;fill:#FFFFFF;stroke:#FFFFFF;stroke-miterlimit:10;enable-background:new    ;}
	.st2{opacity:0.9;fill:#FFFFFF;stroke:#FFFFFF;stroke-width:1.013;stroke-miterlimit:10;enable-background:new    ;}
</style>
<path class="st0" d="M-2073.3,238.5c22.2-137,70.4-202.4,118.5-221.5s493.2-60.9,659.5,31.9c166.2,92.8,84.5,183.7,19,240.4
	s-153.6,109.1-213,117.9c-59.5,8.9-271.8,4.6-351.8,8.7s-182.9,10-212-34.1C-2082.3,337.7-2073.3,238.5-2073.3,238.5"/>
<path class="st1" d="M-568.9,365.6c-152.3,19.9-430.7,102.4-484-30.1C-1117,176.2-1152.3,18-706.3,1.5
	c344.4-12.8,516.9,64.8,532.4,195.4c15.4,130.6-2.4,174.2-101,185.7C-373.5,394.2-427.5,347.1-568.9,365.6"/>
<path class="st2" d="M655.5,354.8c16.4-27.4,37.9-87.8,81-109.4c43.1-21.6,93.4-47.7,93.3-81.7c-0.1-33.9-22.8-141-45.7-155.9
	c-22.9-15-677.4-2.2-677.4-2.2S45.3-0.7,15.4,38c-29.9,38.6-7.2,166.7,3.1,209.5s33.4,116,61.3,126.2c28,10.2,195.2,3.7,296.8,3.4
	s185,7.7,213,5.5C617.5,380.3,640.3,380.2,655.5,354.8"/>
</svg>
